<svg width="32" height="32" viewBox="0 0 32 32" fill="none" xmlns="http://www.w3.org/2000/svg">
<path d="M31.6593 9.33521C31.5838 7.64666 31.3115 6.49023 30.9218 5.48464C30.5196 4.41621 29.8995 3.46509 29.0866 2.669C28.2947 1.86453 27.331 1.23604 26.2794 0.83799C25.2696 0.448325 24.1132 0.175978 22.4288 0.100559C20.7235 0.0167598 20.1872 0 15.8757 0C11.5643 0 11.0279 0.0167598 9.33521 0.0921789C7.64666 0.167598 6.49023 0.439945 5.48464 0.82961C4.41621 1.23185 3.4609 1.85196 2.669 2.66481C1.86034 3.4609 1.23604 4.4204 0.83799 5.47626C0.448325 6.48604 0.175978 7.64247 0.100559 9.32683C0.0167598 11.0279 0 11.5643 0 15.8757C0 20.1872 0.0167598 20.7235 0.0921789 22.4162C0.167598 24.1048 0.439945 25.2612 0.82961 26.2668C1.23185 27.3352 1.86034 28.2864 2.66481 29.0824C3.45671 29.8869 4.4204 30.5154 5.47207 30.9134C6.48185 31.3031 7.63828 31.5755 9.32264 31.6509C11.0154 31.7263 11.5559 31.7431 15.8631 31.7431C20.1704 31.7431 20.7109 31.7263 22.4037 31.6509C24.0922 31.5755 25.2486 31.3031 26.2542 30.9134C28.3869 30.088 30.0755 28.4037 30.9009 26.2668C31.2905 25.257 31.5629 24.1006 31.6383 22.4162C31.7137 20.7235 31.7305 20.183 31.7305 15.8757C31.7305 11.5685 31.7347 11.0279 31.6593 9.33521ZM28.8017 22.2947C28.7347 23.845 28.4749 24.683 28.257 25.2403C27.7249 26.6229 26.6271 27.7207 25.2444 28.2528C24.6872 28.4707 23.845 28.7305 22.2989 28.7975C20.6229 28.8729 20.1243 28.8897 15.8883 28.8897C11.6522 28.8897 11.1453 28.8729 9.47767 28.7975C7.92738 28.7305 7.0894 28.4707 6.53213 28.2528C5.84498 27.9972 5.21649 27.595 4.7095 27.0671C4.17319 26.5559 3.77095 25.9358 3.51537 25.2444C3.29749 24.6872 3.03771 23.8408 2.97067 22.2989C2.89526 20.6229 2.8785 20.1201 2.8785 15.8883C2.8785 11.6564 2.89526 11.1453 2.97067 9.47767C3.03771 7.92738 3.29749 7.0894 3.51537 6.53213C3.77095 5.84498 4.17319 5.21649 4.70531 4.7095C5.22068 4.18157 5.84079 3.77933 6.52794 3.52375C7.0852 3.30587 7.93157 3.04609 9.47348 2.97905C11.1495 2.90364 11.6522 2.88688 15.8841 2.88688C20.1243 2.88688 20.6271 2.90364 22.2947 2.97905C23.845 3.04609 24.683 3.30587 25.2403 3.52375C25.9274 3.77933 26.5559 4.18157 27.0629 4.7095C27.5908 5.22487 27.9931 5.84498 28.2486 6.53213C28.4665 7.0894 28.7263 7.93157 28.7933 9.47767C28.8688 11.1536 28.8855 11.6522 28.8855 15.8883C28.8855 20.1243 28.8729 20.6187 28.8017 22.2947Z" fill="#5F6368"/>
<path d="M20.0443 7.02665L18.3851 7.02246H17.9954C15.4186 7.02246 13.751 8.73196 13.751 11.38V13.3828H11.6896C11.3544 13.3828 11.082 13.6552 11.082 13.9903V16.4163C11.082 16.7515 11.3544 17.0239 11.6896 17.0239H13.751V24.1133C13.751 24.4485 14.0234 24.7208 14.3586 24.7208H16.8725C17.2077 24.7208 17.4801 24.4485 17.4801 24.1133V17.0239H19.8265C20.1617 17.0239 20.434 16.7515 20.434 16.4163V13.9903C20.434 13.6552 20.1617 13.3828 19.8265 13.3828H17.4801V11.6859C17.4801 10.8688 17.677 10.454 18.7413 10.454H19.5373H20.0401C20.3753 10.454 20.6477 10.1817 20.6477 9.84649V7.63838C20.6519 7.299 20.3795 7.02665 20.0443 7.02665Z" fill="#5F6368"/>
</svg>
